# xmcd
#
# Track frame offsets:
#	150
#	11989
#	22445
#	32763
#	44587
#	60144
#
# Disc length: 1016 seconds
# Revision: 0
# Processed by: cddbd v1.5.2PL0 Copyright (c) Steve Scherf et al.
# Submitted via: dBpowerAMP V12.0
#
DISCID=4d03f606
DTITLE=John Denver - Rare And Unreleased, Vol. 2
DYEAR=2007
DGENRE=Country
TTITLE0=Love Is The Master
TTITLE1=Mother Nature's Son
TTITLE2=Grandma's Feather Bed
TTITLE3=The Eagle And The Hawk
TTITLE4=For You
TTITLE5=Heart To Heart
EXTD=
EXTT0=
EXTT1=
EXTT2=
EXTT3=
EXTT4=
EXTT5=
PLAYORDER=
